<svg xmlns="http://www.w3.org/2000/svg" width="30" height="30" viewBox="0 0 30 30">
  <path id="Vector" d="M28.5,17.5H27v-5A2.5,2.5,0,0,0,24.5,10h-8A2.5,2.5,0,0,0,14,12.5v5H12.5A1.5,1.5,0,0,0,11,19v5a2.5,2.5,0,0,0,2.342,2.484L12.623,29H7.95A2.5,2.5,0,0,0,5.5,27h-1V3.981a2.981,2.981,0,0,1,5.932-.421l.009.061a1.491,1.491,0,0,0-.9,1.631l.136.807-1.337,2.3a1,1,0,0,0,.86,1.5,1.015,1.015,0,0,0,.171-.014l4.8-.811a1,1,0,0,0,.484-1.745L12.633,5.559,12.5,4.751a1.5,1.5,0,0,0-1.054-1.182l-.022-.151A3.981,3.981,0,0,0,3.5,3.981V27h-1v-.5a.5.5,0,1,0-1,0v.712A2.5,2.5,0,0,0,0,29.5a.5.5,0,0,0,.5.5h29a.5.5,0,0,0,0-1H28.377l-.719-2.516A2.5,2.5,0,0,0,30,24V19a1.5,1.5,0,0,0-1.5-1.5ZM14,8.047l-4.8.811,1.31-2.25,1.51-.255L14,8.046ZM11.594,5.411l-.986.167-.084-.493a.5.5,0,0,1,.41-.576.513.513,0,0,1,.084-.007.5.5,0,0,1,.493.417ZM16.5,11h8A1.5,1.5,0,0,1,26,12.5v5.092A1.5,1.5,0,0,0,25,19v1.013a2.476,2.476,0,0,0-1.5-.513H21.707l1.146-1.146a.5.5,0,0,0-.707-.707L21,18.793V16.5a.5.5,0,0,0-1,0v2.293l-1.146-1.146a.5.5,0,0,0-.707.707L19.293,19.5H17.5a2.476,2.476,0,0,0-1.5.513V19a1.5,1.5,0,0,0-1-1.408V12.5A1.5,1.5,0,0,1,16.5,11Zm7,9.5A1.5,1.5,0,0,1,25,22v.5H16V22a1.5,1.5,0,0,1,1.5-1.5Zm.71,6L25.639,29H15.362l1.428-2.5Zm.79-1H16v-2h9ZM12,24V19a.5.5,0,0,1,.5-.5h2a.5.5,0,0,1,.5.5v6.5H13.5A1.5,1.5,0,0,1,12,24ZM1.086,29A1.5,1.5,0,0,1,2.5,28h3a1.5,1.5,0,0,1,1.414,1Zm12.577,0,.714-2.5h1.261L14.21,29ZM26.79,29l-1.428-2.5h1.261l.714,2.5ZM29,24a1.5,1.5,0,0,1-1.5,1.5H26V19a.5.5,0,0,1,.5-.5h2a.5.5,0,0,1,.5.5Z" fill="#ff8400"/>
</svg>
