<svg xmlns="http://www.w3.org/2000/svg" width="24.808" height="24.008" viewBox="0 0 24.808 24.008">
  <g id="Group_19" data-name="Group 19" transform="translate(-349 -527)">
    <path id="Vector" d="M3.2,4.4c1.765,0,3.2-1.167,3.2-2.6a.4.4,0,1,0-.8,0,2.051,2.051,0,0,1-2,1.775V2.306a.9.9,0,0,0,.121-.073L4.4,1.748a.969.969,0,0,0,.4-.79A.941.941,0,0,0,3.88,0H2.522A.941.941,0,0,0,1.6.958a.969.969,0,0,0,.4.79l.679.485a.9.9,0,0,0,.121.073v1.27A2.051,2.051,0,0,1,.8,1.8a.4.4,0,1,0-.8,0C0,3.235,1.436,4.4,3.2,4.4ZM2.465,1.1A.17.17,0,0,1,2.4.958.145.145,0,0,1,2.522.8H3.88A.145.145,0,0,1,4,.958a.17.17,0,0,1-.064.139l-.679.485a.093.093,0,0,1-.113,0Z" transform="translate(354.197 533.802)" fill="#ff8400"/>
    <path id="Vector-2" data-name="Vector" d="M.8.4A.4.4,0,1,1,.4,0,.4.4,0,0,1,.8.4Z" transform="translate(359.399 533.002)" fill="#ff8400"/>
    <path id="Vector-3" data-name="Vector" d="M.8.4A.4.4,0,1,1,.4,0,.4.4,0,0,1,.8.4Z" transform="translate(354.597 533.002)" fill="#ff8400"/>
    <path id="Vector-4" data-name="Vector" d="M1.6,3.2A1.6,1.6,0,1,0,.469,2.732,1.6,1.6,0,0,0,1.6,3.2ZM1.6.8a.8.8,0,1,1-.566.235A.8.8,0,0,1,1.6.8Z" transform="translate(366.206 538.604)" fill="#ff8400"/>
    <path id="Vector-5" data-name="Vector" d="M24.408,15.6h-2.4V10.4a.4.4,0,0,0-.073-.229h0l-2.8-4a.4.4,0,0,0-.656,0l-2.8,4a.4.4,0,0,0-.072.229v2.5a6.319,6.319,0,0,0-2.182-1.819A5.943,5.943,0,0,0,14.8,7.2a6.321,6.321,0,0,0-.293-1.924A2.8,2.8,0,1,0,10.7,1.537,7.617,7.617,0,0,0,8.4,1.2a7.615,7.615,0,0,0-2.3.338A2.8,2.8,0,1,0,2.29,5.278,6.321,6.321,0,0,0,2,7.2a5.943,5.943,0,0,0,1.377,3.886A5.989,5.989,0,0,0,.041,15.946c0,.005,0,.01,0,.015L0,16.511a.385.385,0,0,0,0,.054,2.406,2.406,0,0,0,1.6,2.1,3.934,3.934,0,0,0-.4,1.737,3.423,3.423,0,0,0,3.2,3.6A3.053,3.053,0,0,0,6.793,22.8a3.36,3.36,0,0,0,3.22,0A3.053,3.053,0,0,0,12.4,24.008a3.192,3.192,0,0,0,2.866-2h9.138a.4.4,0,0,0,.4-.4V16a.4.4,0,0,0-.4-.4ZM18.806,7.1,20.839,10H16.774Zm-2.4,3.7h4.8v4.8h-4.5a6.514,6.514,0,0,0-.3-1.2Zm-1.2,7.863a2.416,2.416,0,0,0,.982-.661h.618v1.6H15.525a3.86,3.86,0,0,0-.319-.94Zm.754-2.641.036.513a1.6,1.6,0,0,1-1.24,1.428A3.093,3.093,0,0,0,12.8,16.833a6.963,6.963,0,0,0-1.518-4.181,5.849,5.849,0,0,0,1.553-.967,5.26,5.26,0,0,1,3.128,4.339ZM13.2.8a2,2,0,0,1,1.009,3.728,5.585,5.585,0,0,0-1.12-1.573,5.788,5.788,0,0,0-1.637-1.128A2.005,2.005,0,0,1,13.2.8ZM1.6,2.8a2,2,0,0,1,3.749-.973A5.786,5.786,0,0,0,3.708,2.956a5.584,5.584,0,0,0-1.12,1.573A2.005,2.005,0,0,1,1.6,2.8Zm2.673.726A5.734,5.734,0,0,1,8.4,2a5.734,5.734,0,0,1,4.129,1.526A5.09,5.09,0,0,1,14,7.2a5.09,5.09,0,0,1-1.473,3.676A5.733,5.733,0,0,1,8.4,12.4a5.733,5.733,0,0,1-4.129-1.526A5.09,5.09,0,0,1,2.8,7.2,5.09,5.09,0,0,1,4.269,3.526ZM.8,16.538l.036-.513a5.26,5.26,0,0,1,3.128-4.339,5.85,5.85,0,0,0,1.56.97A6.991,6.991,0,0,0,4.01,16.833a3.094,3.094,0,0,0-1.961,1.134A1.6,1.6,0,0,1,.8,16.538Zm3.6,6.669a2.627,2.627,0,0,1-2.4-2.8,2.627,2.627,0,0,1,2.4-2.8,2.627,2.627,0,0,1,2.4,2.8A2.627,2.627,0,0,1,4.4,23.207Zm4-.8a2.586,2.586,0,0,1-1.184-.292A3.938,3.938,0,0,0,7.6,20.406a3.488,3.488,0,0,0-2.792-3.571,5.987,5.987,0,0,1,1.538-3.9A7.748,7.748,0,0,0,8.4,13.2a7.746,7.746,0,0,0,2.056-.265,5.959,5.959,0,0,1,1.54,3.9A3.488,3.488,0,0,0,9.2,20.406a3.938,3.938,0,0,0,.384,1.709,2.586,2.586,0,0,1-1.184.292Zm4,.8a2.627,2.627,0,0,1-2.4-2.8,2.627,2.627,0,0,1,2.4-2.8,2.627,2.627,0,0,1,2.4,2.8A2.627,2.627,0,0,1,12.4,23.207Zm3.2-2.8h1.6a.4.4,0,0,0,.4-.4v-2.4a.4.4,0,0,0-.4-.4h-.542a2.382,2.382,0,0,0,.132-.641.4.4,0,0,0,0-.054l-.007-.106h1.618v4.8H15.525A4.025,4.025,0,0,0,15.605,20.406Zm8.4.8h-4.8v-4.8h4.8Z" transform="translate(349 527)" fill="#ff8400"/>
    <path id="Vector-6" data-name="Vector" d="M.4,3.2H2.8a.4.4,0,0,0,.358-.579l-1.2-2.4a.4.4,0,0,0-.716,0l-1.2,2.4A.4.4,0,0,0,.4,3.2ZM1.6,1.295,2.154,2.4H1.048Z" transform="translate(369.007 544.205)" fill="#ff8400"/>
  </g>
</svg>
